<?xml version="1.0" standalone="no"?>
<!DOCTYPE svg PUBLIC "-//W3C//DTD SVG 20010904//EN"
 "http://www.w3.org/TR/2001/REC-SVG-20010904/DTD/svg10.dtd">
<svg version="1.0" xmlns="http://www.w3.org/2000/svg"
 width="512.000000pt" height="512.000000pt" viewBox="0 0 512.000000 512.000000"
 preserveAspectRatio="xMidYMid meet">

<g transform="translate(0.000000,512.000000) scale(0.100000,-0.100000)"
fill="#000000" stroke="none">
<path d="M3830 5023 c-119 -18 -276 -47 -325 -60 -160 -39 -344 -117 -453
-191 l-44 -30 -211 5 c-207 6 -492 -7 -612 -28 -245 -40 -229 -37 -355 -67
-82 -20 -284 -83 -325 -102 -11 -5 -58 -25 -105 -45 -227 -97 -477 -264 -658
-439 -70 -68 -227 -259 -285 -349 -184 -283 -305 -610 -356 -962 -24 -172 -23
-548 3 -705 19 -114 60 -273 102 -396 25 -73 140 -320 181 -389 136 -226 327
-444 533 -609 87 -70 235 -176 245 -176 2 0 32 -17 67 -39 82 -50 267 -139
378 -182 192 -74 424 -133 640 -161 192 -25 635 -12 770 22 19 5 85 21 145 36
103 25 293 95 395 145 211 103 453 302 593 486 71 93 80 113 60 135 -27 30
-55 21 -118 -41 -307 -299 -749 -517 -1156 -570 -46 -7 -117 -16 -157 -21
-158 -21 -444 -3 -647 41 -835 181 -1491 794 -1704 1592 -81 303 -82 678 -1
970 127 459 458 919 847 1180 159 106 407 220 563 257 272 67 487 86 762 70
95 -6 189 -15 208 -20 19 -5 62 -12 96 -16 l61 -6 139 80 c228 130 381 201
469 216 22 4 49 10 59 13 15 4 18 2 11 -13 -10 -25 -100 -282 -127 -360 l-20
-61 48 -84 c26 -46 60 -102 74 -124 15 -22 29 -45 31 -50 5 -12 165 -282 219
-370 42 -68 313 -523 341 -571 9 -18 40 -69 68 -114 28 -45 51 -83 51 -84 0
-2 56 -97 125 -211 69 -114 125 -209 125 -211 0 -1 27 -46 60 -99 33 -53 60
-98 60 -100 0 -2 14 -26 30 -52 34 -53 37 -87 15 -179 -33 -141 -138 -285
-255 -350 -75 -41 -179 -79 -189 -68 -5 5 -23 36 -41 69 -17 33 -74 112 -125
175 -98 122 -354 380 -421 424 -21 14 -68 47 -104 73 -63 45 -125 88 -375 258
-266 181 -437 311 -615 470 -114 101 -251 264 -300 356 -17 32 -39 94 -50 138
-18 72 -19 89 -8 141 13 66 4 90 -38 90 -46 0 -66 -65 -65 -213 1 -248 152
-510 477 -827 122 -119 337 -307 398 -350 11 -7 55 -41 96 -75 42 -33 91 -71
110 -85 343 -255 720 -635 882 -890 52 -82 54 -83 129 -59 35 11 73 24 84 29
11 5 53 23 94 41 153 65 289 155 396 263 151 151 207 274 206 450 0 98 -11
142 -59 228 -16 29 -47 85 -67 123 -21 39 -54 99 -75 135 -42 73 -80 142 -135
245 -21 39 -58 106 -83 150 -25 44 -59 105 -75 135 -16 30 -53 98 -82 150 -29
52 -66 120 -83 150 -16 30 -61 111 -99 180 -39 69 -86 154 -105 190 -19 36
-79 143 -132 238 -53 95 -96 174 -96 176 0 3 -23 44 -51 93 -57 98 -56 90 -19
243 31 131 61 257 81 345 10 44 23 99 28 123 17 66 4 82 -67 81 -31 -1 -68 -4
-82 -6z"/>
</g>
</svg>
