<?xml version="1.0" standalone="no"?>
<!DOCTYPE svg PUBLIC "-//W3C//DTD SVG 20010904//EN"
 "http://www.w3.org/TR/2001/REC-SVG-20010904/DTD/svg10.dtd">
<svg version="1.0" xmlns="http://www.w3.org/2000/svg"
 width="448.000000pt" height="512.000000pt" viewBox="0 0 448.000000 512.000000"
 preserveAspectRatio="xMidYMid meet">

<g transform="translate(0.000000,512.000000) scale(0.100000,-0.100000)"
fill="#000000" stroke="none">
<path d="M361 4784 c-169 -45 -301 -180 -346 -351 -23 -86 -23 -3660 0 -3746
45 -173 178 -307 350 -352 52 -13 277 -15 1875 -15 1980 0 1865 -3 1982 56 71
36 159 123 197 193 65 123 61 -8 61 1991 0 1598 -2 1823 -15 1875 -45 172
-179 305 -352 350 -85 22 -3669 21 -3752 -1z m2915 -539 c3 -8 -17 -112 -45
-231 -39 -171 -48 -222 -39 -238 6 -12 186 -339 400 -728 l389 -706 0 -74 c1
-90 -5 -116 -44 -193 -58 -116 -211 -237 -397 -313 -121 -49 -125 -49 -183 33
-136 191 -314 369 -552 554 -416 323 -598 507 -690 694 -61 126 -78 233 -51
322 9 33 16 40 36 40 24 0 25 -2 25 -80 0 -65 5 -90 26 -135 78 -166 279 -348
689 -625 80 -54 186 -129 236 -167 114 -85 297 -275 370 -384 l55 -83 42 15
c117 41 197 122 238 242 29 85 25 106 -37 212 -159 267 -599 1005 -686 1149
-54 90 -98 172 -98 182 0 9 21 76 46 148 26 73 44 134 42 136 -9 9 -142 -37
-218 -75 -41 -21 -111 -59 -155 -85 l-80 -48 -60 12 c-89 18 -394 26 -496 12
-407 -54 -736 -264 -965 -616 -113 -174 -182 -353 -210 -545 -46 -314 47 -670
252 -961 86 -123 248 -281 377 -367 130 -87 237 -140 377 -186 172 -57 238
-68 441 -73 162 -4 200 -2 300 17 251 47 455 140 649 296 36 28 81 68 99 88
37 38 68 46 78 20 8 -20 -7 -44 -77 -129 -390 -472 -1193 -573 -1850 -234
-402 208 -689 554 -798 964 -86 324 -65 677 61 1002 132 341 395 622 731 782
263 126 539 181 908 181 l218 0 52 33 c105 66 216 105 387 137 124 23 200 25
207 5z"/>
</g>
</svg>
