<?xml version="1.0" standalone="no"?>
<!DOCTYPE svg PUBLIC "-//W3C//DTD SVG 20010904//EN"
 "http://www.w3.org/TR/2001/REC-SVG-20010904/DTD/svg10.dtd">
<svg version="1.0" xmlns="http://www.w3.org/2000/svg"
 width="512.000000pt" height="512.000000pt" viewBox="0 0 512.000000 512.000000"
 preserveAspectRatio="xMidYMid meet">

<g transform="translate(0.000000,512.000000) scale(0.100000,-0.100000)"
fill="#000000" stroke="none">
<path d="M2200 3150 l0 -130 210 0 c116 0 210 -4 210 -9 0 -5 -31 -90 -70
-190 -38 -100 -70 -183 -70 -185 0 -2 55 -6 123 -8 136 -5 175 -18 236 -80 50
-49 71 -102 71 -178 0 -110 -50 -191 -145 -236 -56 -26 -139 -32 -196 -13 -81
28 -151 108 -169 195 l-12 55 -126 -3 -127 -3 4 -50 c14 -199 164 -385 359
-445 72 -22 206 -27 282 -9 176 40 340 206 380 384 26 117 8 260 -46 367 -36
71 -134 170 -206 208 -35 18 -64 34 -65 35 -1 0 33 93 77 206 44 112 80 207
80 212 0 4 -180 7 -400 7 l-400 0 0 -130z"/>
<path d="M190 2555 c0 -312 1 -340 20 -396 65 -193 228 -309 433 -309 218 0
392 138 442 352 11 49 15 135 15 376 l0 312 -130 0 -130 0 0 -297 c0 -316 -5
-355 -47 -411 -77 -102 -244 -94 -314 16 l-29 46 0 323 0 323 -130 0 -130 0 0
-335z"/>
<path d="M1633 2876 c-231 -53 -403 -270 -403 -509 0 -233 152 -434 379 -501
78 -23 213 -21 295 4 l66 21 0 150 0 150 -29 -20 c-97 -69 -219 -82 -312 -33
-124 64 -174 212 -115 338 47 100 161 164 269 149 57 -7 140 -40 158 -61 25
-30 29 -9 27 133 l-3 146 -55 19 c-74 25 -199 31 -277 14z"/>
<path d="M3370 2370 l0 -520 129 0 130 0 3 318 c3 313 3 318 27 359 37 64 104
103 175 103 66 -1 152 -61 175 -123 7 -18 11 -145 11 -343 l0 -314 135 0 135
0 0 324 0 323 26 39 c42 61 96 92 164 93 69 1 155 -58 179 -122 7 -18 11 -145
11 -343 l0 -314 135 0 135 0 0 318 c0 348 -8 413 -56 502 -38 69 -121 145
-201 183 -63 30 -76 32 -173 32 -97 0 -110 -2 -172 -32 -37 -17 -86 -50 -111
-72 l-44 -40 -34 35 c-19 19 -66 51 -106 71 -122 60 -240 57 -395 -11 -15 -7
-18 -3 -18 23 l0 31 -130 0 -130 0 0 -520z"/>
</g>
</svg>
